<svg width="112.5" height="46.778" viewBox="0 0 112.5 46.778" xmlns="http://www.w3.org/2000/svg"><g id="svgGroup" stroke-linecap="round" fill-rule="evenodd" font-size="9pt" stroke="#1d3208" stroke-width="0.25mm" fill="#1d3208" style="stroke:#1d3208;stroke-width:0.25mm;fill:#1d3208"><path d="M 35.815 36.377 L 32.349 36.377 L 32.349 0 L 44.214 0 A 16.552 16.552 0 0 1 47.09 0.237 Q 49.112 0.594 50.684 1.489 Q 53.296 2.979 54.626 5.518 A 11.703 11.703 0 0 1 55.891 9.864 A 14.396 14.396 0 0 1 55.957 11.255 A 13.213 13.213 0 0 1 55.494 14.807 A 11.421 11.421 0 0 1 54.626 17.017 Q 53.296 19.58 50.696 21.07 Q 48.332 22.424 44.929 22.547 A 19.118 19.118 0 0 1 44.238 22.559 L 34.985 22.559 L 34.985 19.458 L 44.092 19.458 Q 46.924 19.458 48.792 18.396 A 6.802 6.802 0 0 0 51.587 15.479 A 8.768 8.768 0 0 0 52.433 12.616 A 11.029 11.029 0 0 0 52.515 11.255 A 10.159 10.159 0 0 0 52.237 8.838 A 8.459 8.459 0 0 0 51.587 7.056 A 6.713 6.713 0 0 0 48.779 4.151 Q 47.107 3.217 44.68 3.114 A 14.456 14.456 0 0 0 44.067 3.101 L 35.815 3.101 L 35.815 36.377 Z M 89.771 46.216 L 90.674 43.335 L 91.064 43.457 A 7.469 7.469 0 0 0 92.081 43.695 Q 92.543 43.767 92.976 43.767 A 4.785 4.785 0 0 0 93.701 43.714 A 3.518 3.518 0 0 0 95.39 42.954 A 4.651 4.651 0 0 0 95.85 42.53 Q 96.802 41.529 97.485 39.575 L 98.56 36.597 L 88.086 9.082 L 91.699 9.082 L 97.998 26.245 A 57.348 57.348 0 0 1 99.524 30.896 Q 100.171 33.203 100.854 35.425 L 99.683 35.425 A 177.558 177.558 0 0 0 101.062 30.884 A 68.566 68.566 0 0 1 102.588 26.245 L 108.911 9.082 L 112.5 9.082 L 100.391 40.821 Q 99.678 42.669 98.722 43.928 A 8.826 8.826 0 0 1 98.535 44.165 A 7.359 7.359 0 0 1 97.084 45.537 A 6.443 6.443 0 0 1 96.057 46.131 A 7.082 7.082 0 0 1 93.766 46.737 A 8.676 8.676 0 0 1 92.92 46.778 Q 91.919 46.778 91.089 46.607 A 10.222 10.222 0 0 1 90.603 46.495 Q 90.357 46.432 90.15 46.362 A 4.079 4.079 0 0 1 89.771 46.216 Z M 78.931 18.189 L 78.931 17.554 A 7.563 7.563 0 0 0 78.788 16.05 A 5.573 5.573 0 0 0 78.186 14.405 Q 77.441 13.086 76.013 12.378 Q 74.719 11.737 72.913 11.676 A 11.385 11.385 0 0 0 72.534 11.67 A 10.554 10.554 0 0 0 70.828 11.802 A 7.776 7.776 0 0 0 69.141 12.268 A 8.132 8.132 0 0 0 67.725 13.007 A 6.49 6.49 0 0 0 66.711 13.831 A 6.996 6.996 0 0 0 65.63 15.209 A 6.193 6.193 0 0 0 65.259 15.943 L 62.085 14.868 A 9.71 9.71 0 0 1 63.251 12.756 A 8.027 8.027 0 0 1 64.624 11.304 A 10.608 10.608 0 0 1 68.311 9.339 Q 70.361 8.716 72.461 8.716 A 13.267 13.267 0 0 1 75.038 8.977 A 15.317 15.317 0 0 1 75.781 9.143 A 9.653 9.653 0 0 1 78.955 10.584 A 7.1 7.1 0 0 1 80.901 12.629 A 8.757 8.757 0 0 1 81.323 13.367 Q 82.227 15.137 82.227 17.847 L 82.227 36.377 L 78.979 36.377 L 78.979 32.056 L 78.735 32.056 A 7.673 7.673 0 0 1 77.798 33.551 A 9.858 9.858 0 0 1 77.002 34.436 A 8.432 8.432 0 0 1 75.081 35.847 A 10.276 10.276 0 0 1 74.182 36.28 A 8.69 8.69 0 0 1 72.142 36.85 A 11.891 11.891 0 0 1 70.288 36.988 A 11.276 11.276 0 0 1 67.421 36.634 A 9.764 9.764 0 0 1 65.759 36.035 A 7.666 7.666 0 0 1 62.512 33.228 A 7.336 7.336 0 0 1 61.45 30.474 A 9.936 9.936 0 0 1 61.304 28.736 Q 61.304 26.957 61.887 25.677 A 5.213 5.213 0 0 1 62.061 25.33 A 6.133 6.133 0 0 1 64.102 23.144 A 7.235 7.235 0 0 1 64.233 23.059 A 10.872 10.872 0 0 1 66.065 22.145 A 14.128 14.128 0 0 1 67.566 21.656 A 28.642 28.642 0 0 1 69.849 21.148 A 36.638 36.638 0 0 1 71.802 20.85 A 3219.137 3219.137 0 0 0 73.409 20.642 Q 74.667 20.479 75.659 20.349 A 11.805 11.805 0 0 0 76.578 20.195 Q 77.509 19.997 78.088 19.678 A 1.613 1.613 0 0 0 78.657 19.176 Q 78.931 18.773 78.931 18.189 Z M 3.467 36.377 L 0 36.377 L 0 0 L 3.467 0 L 3.467 12.622 L 3.418 20.825 L 3.467 22.608 L 3.467 36.377 Z M 10.474 16.553 L 2.466 25.073 L 2.344 21.387 A 182.358 182.358 0 0 1 4.613 18.584 A 165.061 165.061 0 0 1 4.932 18.201 Q 6.201 16.675 7.507 15.186 A 127.498 127.498 0 0 1 10.205 12.207 L 21.509 0 L 26.074 0 L 10.718 16.48 L 10.474 16.553 Z M 26.074 36.377 L 21.948 36.377 L 8.398 17.31 L 10.62 14.697 L 26.074 36.377 Z M 78.931 25.904 L 78.931 22.022 A 1.812 1.812 0 0 1 78.64 22.238 Q 78.341 22.422 77.887 22.581 A 6.69 6.69 0 0 1 77.734 22.632 Q 76.904 22.901 75.842 23.096 A 46.675 46.675 0 0 1 73.706 23.438 Q 72.968 23.538 72.356 23.616 A 94.98 94.98 0 0 1 71.826 23.682 Q 69.884 23.912 68.415 24.391 A 11.676 11.676 0 0 0 67.932 24.561 A 7.249 7.249 0 0 0 66.783 25.105 Q 65.98 25.581 65.466 26.221 A 3.753 3.753 0 0 0 64.715 27.885 A 5.24 5.24 0 0 0 64.624 28.882 A 5.533 5.533 0 0 0 64.784 30.242 A 4.279 4.279 0 0 0 65.43 31.665 A 5.043 5.043 0 0 0 67.288 33.262 A 6.112 6.112 0 0 0 67.627 33.423 A 7.198 7.198 0 0 0 69.611 33.961 A 9.135 9.135 0 0 0 70.776 34.033 A 9.511 9.511 0 0 0 72.966 33.792 A 7.434 7.434 0 0 0 75.098 32.935 A 7.597 7.597 0 0 0 77.93 29.981 A 8.442 8.442 0 0 0 78.931 25.938 A 9.826 9.826 0 0 0 78.931 25.904 Z" vector-effect="non-scaling-stroke"/></g></svg>