<svg width="509.18" height="95.948" viewBox="0 0 509.18 95.948" xmlns="http://www.w3.org/2000/svg"><g id="svgGroup" stroke-linecap="round" fill-rule="nonzero" font-size="9pt" stroke="#1d3208" stroke-width="0.25mm" fill="#1d3208" style="stroke:#1d3208;stroke-width:0.25mm;fill:#1d3208"><path d="M 87.109 75.148 L 78.369 75.148 L 61.816 20.558 L 71.143 20.558 L 77.783 44.386 A 382.754 382.754 0 0 1 79.153 49.42 Q 79.86 52.083 80.612 55.049 A 627.748 627.748 0 0 1 80.713 55.445 A 215.42 215.42 0 0 1 82.215 61.813 Q 83.009 65.406 83.789 69.435 L 82.275 69.435 A 350.225 350.225 0 0 1 83.752 62.281 A 268.984 268.984 0 0 1 85.254 55.763 A 486.165 486.165 0 0 1 86.743 49.818 A 374.852 374.852 0 0 1 88.184 44.386 L 94.727 20.558 L 104.102 20.558 L 110.547 44.386 A 347.648 347.648 0 0 1 111.945 49.702 A 467.687 467.687 0 0 1 113.403 55.592 A 255.474 255.474 0 0 1 114.886 62.141 A 347.608 347.608 0 0 1 116.357 69.435 L 114.795 69.435 A 404.876 404.876 0 0 1 116.351 62.214 A 302.813 302.813 0 0 1 117.896 55.69 A 528.089 528.089 0 0 1 119.403 49.775 A 403.542 403.542 0 0 1 120.85 44.386 L 127.49 20.558 L 136.816 20.558 L 120.264 75.148 L 111.523 75.148 L 104.443 50.441 Q 103.369 46.681 102.344 42.775 A 359.547 359.547 0 0 1 100.342 34.767 A 2765.475 2765.475 0 0 0 98.34 26.417 L 100.293 26.417 A 899.942 899.942 0 0 1 98.315 34.742 Q 97.314 38.868 96.289 42.823 A 253.039 253.039 0 0 1 94.457 49.52 A 228.249 228.249 0 0 1 94.189 50.441 L 87.109 75.148 Z M 353.662 75.148 L 344.385 75.148 L 344.385 2.394 L 369.287 2.394 A 38.266 38.266 0 0 1 375.208 2.825 Q 379.832 3.55 383.276 5.494 A 20.887 20.887 0 0 1 388.801 9.925 A 18.993 18.993 0 0 1 391.431 13.819 A 24.599 24.599 0 0 1 393.982 22.952 A 29.938 29.938 0 0 1 394.092 25.538 A 27.376 27.376 0 0 1 393.104 33 A 23.984 23.984 0 0 1 391.431 37.306 A 19.72 19.72 0 0 1 383.973 45.305 A 23.869 23.869 0 0 1 383.301 45.704 Q 377.832 48.829 369.336 48.829 L 351.709 48.829 L 351.709 40.675 L 368.896 40.675 A 27.432 27.432 0 0 0 372.592 40.441 Q 374.485 40.183 376.055 39.641 A 12.921 12.921 0 0 0 378.174 38.697 A 12.375 12.375 0 0 0 381.706 35.788 A 11.5 11.5 0 0 0 383.276 33.277 A 17.304 17.304 0 0 0 384.738 27.888 A 21.475 21.475 0 0 0 384.863 25.538 A 19.95 19.95 0 0 0 384.415 21.228 A 16.199 16.199 0 0 0 383.276 17.848 A 11.527 11.527 0 0 0 378.796 12.88 A 14.328 14.328 0 0 0 378.149 12.501 A 14.096 14.096 0 0 0 374.758 11.201 Q 372.158 10.548 368.799 10.548 L 353.662 10.548 L 353.662 75.148 Z M 462.451 94.923 L 464.697 87.306 L 465.625 87.55 A 15.726 15.726 0 0 0 467.509 87.914 Q 469.102 88.118 470.497 87.918 A 9.463 9.463 0 0 0 470.508 87.916 A 6.331 6.331 0 0 0 473.557 86.575 A 8.471 8.471 0 0 0 474.463 85.743 Q 476.185 83.926 477.485 80.141 A 31.285 31.285 0 0 0 477.539 79.982 L 479.102 75.441 L 458.252 20.558 L 467.871 20.558 L 479.492 52.931 Q 481.348 58.009 482.617 62.989 A 229.283 229.283 0 0 0 485.303 72.657 L 482.08 72.657 A 249.109 249.109 0 0 0 484.75 63.121 A 271.04 271.04 0 0 0 484.79 62.965 Q 486.084 57.96 487.891 52.931 L 499.609 20.558 L 509.18 20.558 L 485.205 83.302 Q 483.691 87.266 481.628 89.95 A 18.337 18.337 0 0 1 481.226 90.455 A 15.149 15.149 0 0 1 477.856 93.509 A 13.639 13.639 0 0 1 475.83 94.606 A 16.012 16.012 0 0 1 471.344 95.804 A 20.145 20.145 0 0 1 468.896 95.948 Q 466.944 95.948 465.432 95.711 A 14.309 14.309 0 0 1 464.844 95.607 A 24.108 24.108 0 0 1 464.053 95.436 Q 463.321 95.263 462.85 95.091 A 3.861 3.861 0 0 1 462.451 94.923 Z M 147.949 55.226 L 147.949 20.558 L 156.738 20.558 L 156.738 54.493 A 19.24 19.24 0 0 0 157.131 58.501 Q 157.88 62.017 160.059 64.357 Q 163.379 67.921 169.092 67.921 A 15.322 15.322 0 0 0 173.339 67.35 A 13.306 13.306 0 0 0 176.099 66.212 A 12.261 12.261 0 0 0 180.863 61.462 A 14.716 14.716 0 0 0 181.006 61.207 A 14.193 14.193 0 0 0 182.467 57.074 Q 182.807 55.33 182.812 53.336 A 23.756 23.756 0 0 0 182.813 53.273 L 182.813 20.558 L 191.65 20.558 L 191.65 75.148 L 183.154 75.148 L 183.154 61.915 L 184.326 61.915 A 30.496 30.496 0 0 1 182.482 66.36 Q 181.319 68.603 179.88 70.254 A 14.007 14.007 0 0 1 177.124 72.706 A 18.544 18.544 0 0 1 167.247 75.817 A 22.587 22.587 0 0 1 166.455 75.831 A 22.701 22.701 0 0 1 161.311 75.272 A 17.981 17.981 0 0 1 156.763 73.561 Q 152.588 71.29 150.269 66.7 A 20.076 20.076 0 0 1 148.604 61.893 Q 147.949 58.883 147.949 55.226 Z M 275.635 34.962 L 267.188 37.355 A 12.693 12.693 0 0 0 265.381 33.497 Q 264.16 31.739 262.427 30.445 A 12.946 12.946 0 0 0 259.204 28.704 A 15.049 15.049 0 0 0 258.447 28.443 A 15.308 15.308 0 0 0 255.231 27.812 A 18.838 18.838 0 0 0 253.516 27.735 A 17.203 17.203 0 0 0 249.541 28.171 A 12.338 12.338 0 0 0 244.531 30.592 A 16.623 16.623 0 0 0 239.823 36.818 A 20.253 20.253 0 0 0 239.307 38.087 A 28.005 28.005 0 0 0 237.685 45.759 A 33.299 33.299 0 0 0 237.598 48.194 Q 237.598 53.566 239.307 58.18 A 17.898 17.898 0 0 0 241.973 63.031 A 15.906 15.906 0 0 0 244.531 65.626 A 12.51 12.51 0 0 0 249.977 68.122 A 17.724 17.724 0 0 0 253.516 68.458 A 17.842 17.842 0 0 0 256.608 68.2 A 14.784 14.784 0 0 0 258.545 67.726 A 13.965 13.965 0 0 0 261.699 66.284 A 12.644 12.644 0 0 0 262.622 65.651 A 12.752 12.752 0 0 0 265.625 62.452 A 13.782 13.782 0 0 0 267.432 58.4 L 275.83 60.792 A 20.941 20.941 0 0 1 273.511 66.022 A 19.243 19.243 0 0 1 272.632 67.311 A 21.489 21.489 0 0 1 267.578 72.193 Q 264.648 74.22 261.084 75.27 A 26.243 26.243 0 0 1 254.571 76.301 A 29.894 29.894 0 0 1 253.516 76.319 Q 246.094 76.319 240.503 72.804 Q 234.912 69.288 231.787 62.941 A 29.937 29.937 0 0 1 229.104 54.22 A 39.562 39.562 0 0 1 228.662 48.194 Q 228.662 39.65 231.787 33.277 A 24.835 24.835 0 0 1 236.657 26.428 A 22.726 22.726 0 0 1 240.503 23.39 A 22.921 22.921 0 0 1 250.301 20.048 A 28.97 28.97 0 0 1 253.516 19.874 Q 257.471 19.874 260.986 20.9 A 23.35 23.35 0 0 1 267.407 23.854 Q 270.313 25.782 272.412 28.59 A 21.004 21.004 0 0 1 275.472 34.465 A 23.819 23.819 0 0 1 275.635 34.962 Z M 439.111 38.575 L 439.111 38.282 Q 439.111 34.864 437.842 32.496 Q 436.572 30.128 434.033 28.859 Q 431.494 27.589 427.686 27.589 A 21.023 21.023 0 0 0 424.697 27.79 Q 423.049 28.027 421.657 28.543 A 12.158 12.158 0 0 0 420.996 28.81 A 16.056 16.056 0 0 0 418.618 30.088 A 12.025 12.025 0 0 0 416.479 31.861 A 16.228 16.228 0 0 0 414.96 33.711 A 12.261 12.261 0 0 0 413.867 35.597 L 405.42 32.814 A 22.416 22.416 0 0 1 407.667 28.684 A 16.974 16.974 0 0 1 411.084 25.026 Q 414.648 22.218 418.945 21.046 Q 423.242 19.874 427.441 19.874 A 27.152 27.152 0 0 1 429.979 20 Q 431.272 20.122 432.7 20.361 A 47.254 47.254 0 0 1 433.667 20.533 A 20.17 20.17 0 0 1 439.947 22.877 A 22.97 22.97 0 0 1 440.405 23.146 A 14.043 14.043 0 0 1 444.339 26.72 A 18.141 18.141 0 0 1 445.776 28.932 Q 447.388 31.84 447.777 36.225 A 33.29 33.29 0 0 1 447.9 39.161 L 447.9 75.148 L 439.258 75.148 L 439.258 67.726 L 438.672 67.726 Q 437.744 69.63 435.693 71.656 A 14.377 14.377 0 0 1 433.085 73.676 A 19.794 19.794 0 0 1 430.371 75.05 A 16.548 16.548 0 0 1 427.004 76.031 Q 424.925 76.417 422.461 76.417 A 23.748 23.748 0 0 1 416.65 75.729 A 20.366 20.366 0 0 1 413.062 74.464 Q 408.838 72.511 406.348 68.751 A 14.733 14.733 0 0 1 404.153 63.132 A 19.997 19.997 0 0 1 403.857 59.62 A 19.391 19.391 0 0 1 404.097 56.478 Q 404.377 54.773 404.986 53.379 A 10.153 10.153 0 0 1 405.713 52.003 A 13.248 13.248 0 0 1 410.669 47.389 Q 413.77 45.704 417.529 44.874 Q 421.289 44.044 425.098 43.556 A 729.175 729.175 0 0 1 427.426 43.257 Q 430.282 42.895 432.388 42.655 A 229.12 229.12 0 0 1 433.057 42.579 Q 436.133 42.237 437.622 41.407 A 2.767 2.767 0 0 0 439.04 39.395 A 4.469 4.469 0 0 0 439.111 38.575 Z M 439.111 55.421 L 439.111 47.853 Q 438.69 48.35 437.488 48.773 A 12.298 12.298 0 0 1 436.768 49 Q 434.961 49.513 432.642 49.903 A 106.38 106.38 0 0 1 429.245 50.421 A 95.489 95.489 0 0 1 428.149 50.563 Q 425.977 50.831 424.707 50.978 A 30.083 30.083 0 0 0 420.269 51.854 A 26.348 26.348 0 0 0 418.774 52.32 A 12.094 12.094 0 0 0 416.429 53.406 A 9.294 9.294 0 0 0 414.355 55.104 A 6.166 6.166 0 0 0 412.949 57.816 Q 412.715 58.759 412.697 59.87 A 11.545 11.545 0 0 0 412.695 60.06 A 9.043 9.043 0 0 0 412.956 62.284 A 6.812 6.812 0 0 0 414.16 64.796 A 8.537 8.537 0 0 0 416.962 67.131 A 10.833 10.833 0 0 0 418.164 67.677 A 14.334 14.334 0 0 0 421.345 68.48 A 19.095 19.095 0 0 0 423.975 68.653 Q 428.495 68.653 431.718 67.022 A 12.617 12.617 0 0 0 432.227 66.749 Q 435.596 64.845 437.354 61.793 A 12.918 12.918 0 0 0 438.972 57.267 A 12.241 12.241 0 0 0 439.111 55.421 Z M 9.277 75.148 L 0 75.148 L 0 2.394 L 9.277 2.394 L 9.277 27.296 L 9.131 42.97 L 9.277 47.511 L 9.277 75.148 Z M 297.217 75.148 L 288.428 75.148 L 288.428 2.394 L 297.217 2.394 L 297.217 75.148 Z M 24.023 35.646 L 6.348 54.347 L 6.348 44.435 A 215.164 215.164 0 0 1 10.995 38.284 A 196.343 196.343 0 0 1 11.304 37.892 A 167.52 167.52 0 0 1 16.357 31.788 A 223.427 223.427 0 0 1 21.68 25.88 L 43.408 2.394 L 55.566 2.394 L 24.512 35.694 L 24.023 35.646 Z M 215.869 75.148 L 207.08 75.148 L 207.08 20.558 L 215.869 20.558 L 215.869 75.148 Z M 55.615 75.148 L 44.629 75.148 L 18.311 38.136 L 24.072 30.909 L 55.615 75.148 Z M 306.299 46.485 L 296.68 55.519 L 296.68 44.63 L 298.291 44.63 L 321.631 20.558 L 332.52 20.558 L 307.275 46.485 L 306.299 46.485 Z M 334.229 75.148 L 322.949 75.148 L 302.051 48.439 L 308.301 42.237 L 334.229 75.148 Z M 207.227 9.913 Q 205.42 8.204 205.42 5.812 Q 205.42 3.37 207.227 1.686 A 6.086 6.086 0 0 1 211.523 0.001 A 6.147 6.147 0 0 1 215.869 1.686 Q 217.676 3.37 217.676 5.812 A 5.418 5.418 0 0 1 216.008 9.779 A 6.978 6.978 0 0 1 215.869 9.913 A 6.099 6.099 0 0 1 211.523 11.622 A 6.039 6.039 0 0 1 207.227 9.913 Z" vector-effect="non-scaling-stroke"/></g></svg>